<?xml version="1.0" encoding="utf-8"?>
<!-- Generator: Adobe Illustrator 16.0.0, SVG Export Plug-In . SVG Version: 6.00 Build 0)  -->
<!DOCTYPE svg PUBLIC "-//W3C//DTD SVG 1.1//EN" "http://www.w3.org/Graphics/SVG/1.1/DTD/svg11.dtd">
<svg version="1.1" id="Camada_1" xmlns="http://www.w3.org/2000/svg" xmlns:xlink="http://www.w3.org/1999/xlink" x="0px" y="0px"
	 width="1280px" height="800px" viewBox="0 0 1280 800" enable-background="new 0 0 1280 800" xml:space="preserve">
<rect x="-1" y="1" fill="#061EFF" width="1280" height="132"/>
<path fill="#FF9A08" d="M203,116.624c0,4.517-3.295,8.376-8.795,8.376h-20.746c-5.5,0-10.459-3.86-10.459-8.376V34.838
	c0-4.517,4.959-7.838,10.459-7.838h20.746c5.5,0,8.795,3.321,8.795,7.838V116.624z"/>
<path fill="#FF9A08" d="M140.439,113.181c0.878,2.968-1.356,6.247-4.992,7.322l-13.714,4.058c-3.635,1.075-7.294-0.459-8.173-3.427
	l-15.9-53.744c-0.878-2.968,1.346-6.284,4.981-7.359l13.714-4.057c3.635-1.076,7.306,0.496,8.184,3.464L140.439,113.181z"/>
<path fill="#FF9A08" d="M89.98,112.839c0.831,1.57-0.845,4.087-3.744,5.621l-10.934,5.788c-2.898,1.535-5.922,1.505-6.753-0.064
	L53.501,95.757c-0.832-1.57,0.834-4.106,3.732-5.641l10.934-5.788c2.898-1.534,5.932-1.486,6.763,0.084L89.98,112.839z"/>
<text transform="matrix(1 0 0 1 518.7144 66.5)" fill="#FFFFFF" font-family="'Gisha'" font-size="60">Flipper </text>
<text transform="matrix(1 0 0 1 639.4995 109.1035)" fill="#FFFFFF" font-family="'Gisha'" font-size="24">Academia </text>
<polyline fill="#FF9A08" points="1,162 814,162 752.571,205 15,205 0,205 "/>
</svg>
